<svg width="15" height="14" viewBox="0 0 15 14" fill="none" xmlns="http://www.w3.org/2000/svg">
<path d="M10.8334 2.99998H14.1667V4.33331H12.8334V13C12.8334 13.1768 12.7631 13.3464 12.6381 13.4714C12.5131 13.5964 12.3435 13.6666 12.1667 13.6666H2.83337C2.65656 13.6666 2.48699 13.5964 2.36197 13.4714C2.23695 13.3464 2.16671 13.1768 2.16671 13V4.33331H0.833374V2.99998H4.16671V0.99998C4.16671 0.823169 4.23695 0.653599 4.36197 0.528575C4.48699 0.403551 4.65656 0.333313 4.83337 0.333313H10.1667C10.3435 0.333313 10.5131 0.403551 10.6381 0.528575C10.7631 0.653599 10.8334 0.823169 10.8334 0.99998V2.99998ZM11.5 4.33331H3.50004V12.3333H11.5V4.33331ZM8.44271 8.33331L9.62137 9.51198L8.67871 10.4546L7.50004 9.27598L6.32137 10.4546L5.37871 9.51198L6.55737 8.33331L5.37871 7.15465L6.32137 6.21198L7.50004 7.39065L8.67871 6.21198L9.62137 7.15465L8.44271 8.33331ZM5.50004 1.66665V2.99998H9.50004V1.66665H5.50004Z" fill="#C5D5ED"/>
</svg>
