<svg width="14" height="14" viewBox="0 0 14 14" fill="none" xmlns="http://www.w3.org/2000/svg">
<path d="M0.333374 12.3334H13.6667V13.6667H0.333374V12.3334ZM1.66671 7.00004H3.00004V11.6667H1.66671V7.00004ZM5.00004 7.00004H6.33337V11.6667H5.00004V7.00004ZM7.66671 7.00004H9.00004V11.6667H7.66671V7.00004ZM11 7.00004H12.3334V11.6667H11V7.00004ZM0.333374 3.66671L7.00004 0.333374L13.6667 3.66671V6.33337H0.333374V3.66671ZM1.66671 4.49071V5.00004H12.3334V4.49071L7.00004 1.82404L1.66671 4.49071ZM7.00004 4.33337C6.82323 4.33337 6.65366 4.26314 6.52864 4.13811C6.40361 4.01309 6.33337 3.84352 6.33337 3.66671C6.33337 3.4899 6.40361 3.32033 6.52864 3.1953C6.65366 3.07028 6.82323 3.00004 7.00004 3.00004C7.17685 3.00004 7.34642 3.07028 7.47145 3.1953C7.59647 3.32033 7.66671 3.4899 7.66671 3.66671C7.66671 3.84352 7.59647 4.01309 7.47145 4.13811C7.34642 4.26314 7.17685 4.33337 7.00004 4.33337Z" fill="#7388A8"/>
</svg>
