<svg width="14" height="14" viewBox="0 0 14 14" fill="none" xmlns="http://www.w3.org/2000/svg">
<path d="M12.3334 7.00004C12.3332 5.8113 11.936 4.65667 11.2046 3.7195C10.4733 2.78234 9.44986 2.11636 8.29679 1.82733C7.14372 1.5383 5.92714 1.64278 4.84023 2.12418C3.75332 2.60558 2.8584 3.4363 2.29757 4.48444C1.73673 5.53257 1.54215 6.73803 1.7447 7.90939C1.94726 9.08075 2.53534 10.1509 3.41558 10.9498C4.29581 11.7487 5.41773 12.2307 6.60318 12.3192C7.78863 12.4076 8.96965 12.0975 9.95871 11.438L10.6987 12.5474C9.60418 13.2792 8.31668 13.6688 7.00004 13.6667C3.31804 13.6667 0.333374 10.682 0.333374 7.00004C0.333374 3.31804 3.31804 0.333374 7.00004 0.333374C10.682 0.333374 13.6667 3.31804 13.6667 7.00004V8.00004C13.6668 8.49921 13.5068 8.98524 13.2102 9.38675C12.9136 9.78825 12.4961 10.0841 12.0189 10.2307C11.5418 10.3774 11.0302 10.3672 10.5593 10.2016C10.0884 10.036 9.68303 9.72373 9.40271 9.31071C8.95776 9.77337 8.38868 10.0977 7.76385 10.2448C7.13902 10.3919 6.48502 10.3554 5.88042 10.1398C5.27581 9.92413 4.74633 9.53852 4.35558 9.02925C3.96483 8.51998 3.72943 7.90872 3.67767 7.26891C3.62591 6.6291 3.75998 5.98795 4.06379 5.42249C4.3676 4.85703 4.82821 4.39132 5.39029 4.08131C5.95237 3.7713 6.592 3.63017 7.23235 3.67488C7.87269 3.7196 8.4865 3.94825 9.00004 4.33337H10.3334V8.00004C10.3334 8.26526 10.4387 8.51961 10.6263 8.70715C10.8138 8.89468 11.0682 9.00004 11.3334 9.00004C11.5986 9.00004 11.8529 8.89468 12.0405 8.70715C12.228 8.51961 12.3334 8.26526 12.3334 8.00004V7.00004ZM7.00004 5.00004C6.46961 5.00004 5.9609 5.21075 5.58583 5.58583C5.21075 5.9609 5.00004 6.46961 5.00004 7.00004C5.00004 7.53047 5.21075 8.03918 5.58583 8.41426C5.9609 8.78933 6.46961 9.00004 7.00004 9.00004C7.53047 9.00004 8.03918 8.78933 8.41426 8.41426C8.78933 8.03918 9.00004 7.53047 9.00004 7.00004C9.00004 6.46961 8.78933 5.9609 8.41426 5.58583C8.03918 5.21075 7.53047 5.00004 7.00004 5.00004Z" fill="#7388A8"/>
</svg>
