<svg width="14" height="14" viewBox="0 0 14 14" fill="none" xmlns="http://www.w3.org/2000/svg">
<path d="M10.3333 2.99998H13.6666V4.33331H12.3333V13C12.3333 13.1768 12.263 13.3464 12.138 13.4714C12.013 13.5964 11.8434 13.6666 11.6666 13.6666H2.33325C2.15644 13.6666 1.98687 13.5964 1.86185 13.4714C1.73682 13.3464 1.66659 13.1768 1.66659 13V4.33331H0.333252V2.99998H3.66659V0.99998C3.66659 0.823169 3.73682 0.653599 3.86185 0.528575C3.98687 0.403551 4.15644 0.333313 4.33325 0.333313H9.66659C9.8434 0.333313 10.013 0.403551 10.138 0.528575C10.263 0.653599 10.3333 0.823169 10.3333 0.99998V2.99998ZM10.9999 4.33331H2.99992V12.3333H10.9999V4.33331ZM7.94258 8.33331L9.12125 9.51198L8.17859 10.4546L6.99992 9.27598L5.82125 10.4546L4.87859 9.51198L6.05725 8.33331L4.87859 7.15465L5.82125 6.21198L6.99992 7.39065L8.17859 6.21198L9.12125 7.15465L7.94258 8.33331ZM4.99992 1.66665V2.99998H8.99992V1.66665H4.99992Z" fill="black"/>
</svg>
